<?xml version="1.0" encoding="utf-8"?>
<!-- Generator: Adobe Illustrator 27.5.0, SVG Export Plug-In . SVG Version: 6.00 Build 0)  -->
<svg version="1.1" xmlns="http://www.w3.org/2000/svg" xmlns:xlink="http://www.w3.org/1999/xlink" x="0px" y="0px"
	 viewBox="0 0 750 500" style="enable-background:new 0 0 750 500;" xml:space="preserve">
<g id="BACKGROUND">
	<rect style="fill:#F1F2E1;" width="750" height="500"/>
</g>
<g id="OBJECTS">
	<g>
		<path style="fill:#350900;" d="M564.572,182.516c-0.619,0.115-1.32,0.244-1.982,0.367c-1.095,0.231-2.204,0.395-3.277,0.698
			c-7.769,1.831-15.299,4.721-22.34,8.52c-2.298,1.165-4.451,2.582-6.657,3.906c-2.115,1.464-4.298,2.836-6.315,4.436
			c-4.149,3.047-7.992,6.48-11.724,10.007c-4.6,4.385-8.824,9.139-12.834,14.051c-6.079,7.401-11.441,15.352-16.537,23.446
			c-3.016,4.869-5.981,9.77-8.837,14.738c-5.084,8.878-9.798,17.956-14.492,27.036c-0.111-0.006-0.224-0.005-0.329-0.032
			c-0.295-0.085-0.579-0.205-0.881-0.264c-0.325-0.072-0.661-0.111-0.982-0.202c-0.312-0.089-0.606-0.231-0.895-0.381
			c-0.35-0.179-0.721-0.296-1.103-0.392c-0.056-0.015-0.084-0.103-0.139-0.121c-0.289-0.091-0.592-0.15-0.885-0.236
			c-0.121-0.035-0.21-0.148-0.327-0.191c-0.064-0.023-0.13-0.04-0.196-0.058c-0.021-0.322-0.086-0.635-0.235-0.897
			c-0.037-0.076-0.089-0.142-0.133-0.21c0.299-0.141,0.831-0.321,1.259-0.585c0.518-0.314,1.007-0.714,1.347-1.232
			c0.354-0.501,0.51-1.171,0.32-1.766c-0.122-0.457-0.383-0.887-0.773-1.176c-0.375-0.305-0.97-0.37-1.391-0.098
			c-0.857,0.52-1.086,1.554-1.829,2.049c-0.019,0.01-0.039,0.012-0.06,0.022c0.144-0.195,0.301-0.382,0.43-0.587
			c0.168-0.266,0.278-0.567,0.447-0.831c0.354-0.549,0.732-1.085,1.043-1.661l0.979-1.887c0.15-0.311,0.368-0.573,0.468-0.953
			c0.095-0.423-0.186-0.763-0.343-1.043c-0.222-0.357-0.479-0.714-0.839-0.988c-0.353-0.276-0.846-0.432-1.303-0.339
			c-0.132,0.022-0.284-0.006-0.415,0.047c-0.671,0.307-1.067,0.936-1.281,1.551c-0.093,0.255-0.24,0.491-0.31,0.752
			c-0.133,0.512-0.2,1.032-0.421,1.506c-0.257,0.565-0.598,1.078-0.96,1.579c-0.093-0.709,0.131-1.409,0.23-2.193
			c0.069-0.551,0.023-1.138-0.154-1.689c-0.161-0.605-0.69-1.076-1.281-1.251c-0.298-0.091-0.64-0.103-0.957,0.024
			c-0.323,0.121-0.561,0.426-0.65,0.734c-0.181,0.696,0.044,1.289,0.073,1.886c0.055,0.598,0.054,1.206-0.118,1.777
			c-0.163,0.549-0.512,1.052-0.987,1.357c-0.479,0.33-1.053,0.314-1.622,0.189c-0.347-0.065-0.703-0.152-1.096-0.153
			c-0.389-0.009-0.84,0.153-1.098,0.495c-0.492,0.688-0.392,1.468-0.909,1.906c-0.143,0.139-0.355,0.193-0.527,0.31
			c-0.452,0.282-1,0.698-1.162,1.307c-0.18,0.594-0.048,1.182,0.088,1.721c0.104,0.447,0.21,0.901,0.313,1.345
			c0.248,0.849,0.298,1.764,0.03,2.628c-0.008,0.027-0.021,0.051-0.03,0.078c-0.226,0.283-0.451,0.564-0.682,0.853
			c-0.255,0.315-0.469,0.667-0.742,0.972c-0.571,0.633-1.17,1.242-1.723,1.891c-0.604,0.699-1.185,1.42-1.816,2.095
			c-0.612,0.658-1.275,1.267-1.947,1.86c-0.82,0.708-1.599,1.456-2.398,2.186c-0.119,0.108-0.289,0.155-0.409,0.261
			c-0.634,0.548-1.263,1.106-1.929,1.621c-0.27,0.22-0.605,0.346-0.888,0.546c-0.556,0.398-1.117,0.796-1.718,1.123
			c-0.299,0.158-0.604,0.301-0.908,0.447c-0.76-0.407-1.523-0.807-2.295-1.188c-0.543-0.271-1.113-0.488-1.648-0.774
			c-1.114-0.6-2.197-1.254-3.301-1.872c-1.193-0.674-2.393-1.342-3.547-2.085c-0.556-0.358-1.112-0.744-1.471-1.282
			c-0.361-0.535-0.452-1.199-0.674-1.848c-0.535-1.645-2.095-2.668-3.59-3.22c-0.226-0.084-0.425-0.245-0.655-0.32
			c-1.199-0.415-2.433-0.654-3.631-0.998c-0.495-0.146-0.962-0.375-1.446-0.551c-0.955-0.341-1.919-0.679-2.828-1.137
			c-0.379-0.19-0.743-0.405-1.112-0.61c0-0.007-0.001-0.013-0.001-0.019c-0.019-0.281-0.088-0.565-0.079-0.852
			c0.02-0.596,0.115-1.188,0.15-1.788c0.026-0.317,0.033-0.67,0.07-0.958c0.021-0.294,0.297-0.424,0.618-0.509
			c0.597-0.187,1.236-0.177,1.865-0.15c0.76,0.032,1.549,0.026,2.32-0.179c0.112-0.034,0.246,0.006,0.361-0.027
			c0.575-0.229,1.18-0.542,1.452-1.169c0.094-0.261,0.12-0.54,0.093-0.78c-0.058-0.482-0.168-0.96-0.199-1.444
			c-0.019-0.278-0.037-0.556-0.057-0.834c0.064-0.094,0.118-0.197,0.189-0.281c0.199-0.216,0.404-0.439,0.529-0.71
			c0.036-0.098,0.206-0.432,0.144-0.532c-0.432-0.08-0.472-0.118-0.608-0.204c-0.101-0.057-0.26-0.243-0.238-0.233
			c-0.03,0.011,0.159-0.133,0.257-0.22c0.284-0.237,0.505-0.534,0.688-0.854c0.028-0.046,0.119-0.047,0.148-0.093
			c0.147-0.234,0.266-0.509,0.427-0.822c0.008-0.008-0.001-0.015-0.001-0.023c-0.084-0.09-0.126-0.236-0.203-0.331
			c-0.113-0.142-0.234-0.292-0.31-0.464c0.391-0.072,0.774-0.201,1.115-0.41c0.284-0.178,0.502-0.438,0.733-0.667
			c0.12-0.118,0.253-0.251,0.335-0.45c0.087-0.201,0.052-0.459-0.055-0.632c-0.217-0.351-0.527-0.514-0.782-0.699
			c-0.576-0.4-1.163-0.796-1.694-1.26c-0.518-0.45-0.979-0.961-1.411-1.492c-0.245-0.313-0.566-0.651-0.742-0.933
			c-0.166-0.26,0.006-0.614,0.231-0.963c0.065-0.106,0.197-0.175,0.258-0.288c0.322-0.581,0.519-1.305,0.327-1.973
			c-0.065-0.216-0.126-0.444-0.235-0.646c1.101-0.788,2.128-1.688,3.009-2.732c0.954-1.19,1.776-2.374,2.35-3.904
			c0.054-0.212,0.09-0.444,0.052-0.709c-0.031-0.261-0.199-0.572-0.454-0.729c-0.563-0.309-0.974-0.138-1.318-0.14l-2.196,0.194
			c-1.805,0.169-3.628,0.339-5.429,0.507c-0.676,0.052-1.38,0.148-1.965-0.184c-0.583-0.328-0.969-0.921-1.36-1.477
			c-0.783-1.12-1.543-2.286-2.591-3.193c-1.234-1.113-2.978-1.612-4.652-1.418c-1.705,0.171-3.302,0.847-4.766,1.658
			c-1.463,0.814-2.867,1.773-4.061,2.955c-0.559,0.56-1.117,1.124-1.622,1.745c-0.076,0.089-0.123,0.205-0.187,0.307
			c-0.47,0.32-0.929,0.656-1.357,1.034c-0.45,0.396-0.833,0.861-1.237,1.298c-0.845,0.91-1.607,1.929-2.098,3.087
			c-0.536,1.248-0.794,2.617-0.709,3.963c0.058,1.312,0.425,2.593,0.96,3.792c0.667,1.444,1.63,2.72,2.67,3.892
			c0.152,0.176,0.247,0.402,0.403,0.575c0.808,0.916,1.676,1.764,2.463,2.685c0.327,0.38,0.58,0.817,0.877,1.218
			c0.587,0.786,1.174,1.587,1.592,2.48c0.295,0.62,0.522,1.269,0.69,1.931c-0.042-0.004-0.083-0.014-0.125-0.018
			c-0.281-0.019-0.566,0.019-0.846-0.008c-0.583-0.062-1.162-0.157-1.748-0.184c-0.635-0.038-1.269-0.037-1.908-0.083
			c-0.307-0.008-0.668-0.028-0.958,0.223c-0.283,0.271-0.278,0.667-0.277,0.962c-0.017,0.77,0.184,1.535,0.522,2.218
			c0.051,0.1,0.03,0.234,0.08,0.337c0.249,0.467,0.57,0.886,0.915,1.277c-0.44,0.399-0.972,0.702-1.497,1.013
			c-0.791,0.461-1.657,0.953-2.221,1.786c-0.57,0.817-0.774,1.805-0.852,2.74c-0.107,1.273,0.057,2.519-0.059,3.746
			c-0.237,2.572-1.196,5.02-1.683,7.597c-0.545,2.804-0.337,5.705,0.347,8.444c0.636,2.679,1.631,5.251,2.677,7.787
			c1.286,3.057,2.688,6.044,3.895,9.123c0.184,0.454,0.284,0.943,0.461,1.399c0.911,2.399,1.793,4.81,2.623,7.242
			c0.34,1.006,0.602,2.039,0.93,3.049l1.005,3.032c1.126,0.234,2.107,0.291,3.173,0.375c0.49,0.032,0.983,0.027,1.475,0.034
			c-0.066,0.354-0.108,0.712-0.105,1.071c0.001,0.367,0.101,0.723,0.139,1.081c0.081,0.747,0.219,1.492,0.471,2.199
			c0.266,0.769,0.639,1.49,0.995,2.21c0.336,0.706,0.67,1.408,1.007,2.116c0.397,0.856,0.862,1.668,1.309,2.49
			c0.066,0.122,0.059,0.279,0.12,0.403c0.322,0.648,0.645,1.296,0.9,1.979c0.106,0.282,0.127,0.589,0.213,0.876
			c0.171,0.565,0.37,1.129,0.474,1.713c0.01,0.059,0.018,0.118,0.028,0.177c-0.015,0.002-0.029,0.001-0.044,0.003
			c-0.659,0.1-1.381,0.347-1.852,0.949c-0.307,0.41-0.38,0.934-0.346,1.403c0.069,0.999,0.575,1.838,0.99,2.637
			c0.457,0.872,0.863,1.785,1.118,2.745c0.255,0.932,0.359,1.901,0.367,2.861c0.007,0.58-0.008,1.159-0.046,1.735
			c-0.013,0.286-0.051,0.601,0.035,0.932c0.078,0.34,0.351,0.622,0.637,0.756c0.167,0.086,0.32,0.216,0.498,0.265
			c0.897,0.219,1.803,0.287,2.706,0.287c-0.035,0.372-0.063,0.755-0.072,1.127c0.002,0.388,0.1,0.771,0.109,1.155
			c0.046,0.8,0.089,1.607,0.26,2.392c0.156,0.855,0.415,1.686,0.635,2.521c0.2,0.817,0.399,1.63,0.599,2.449
			c0.233,0.989,0.553,1.95,0.887,2.905c0.048,0.142,0.022,0.307,0.069,0.449c0.238,0.747,0.519,1.483,0.74,2.236
			c0.09,0.312,0.117,0.64,0.187,0.955c0.025,0.099,0.053,0.198,0.079,0.297c-0.09-0.061-0.166-0.141-0.264-0.191
			c-0.624-0.326-1.356-0.428-2.052-0.32c-0.472,0.074-0.903,0.29-1.308,0.518c-0.426,0.237-0.81,0.565-1.097,0.972
			c-0.14,0.202-0.265,0.434-0.319,0.702c-0.055,0.274-0.005,0.541,0.054,0.771c0.268,0.97,0.514,1.938,0.635,2.936
			c0.123,0.968,0.12,1.948,0.056,2.917c-0.045,0.573-0.074,1.198-0.165,1.721c-0.07,0.522-0.658,0.675-1.177,1.057
			c-0.149,0.111-0.334,0.197-0.458,0.348c-0.618,0.819-0.655,1.887-0.378,2.779c0.09,0.288,0.187,0.577,0.317,0.851
			c-1.152,0.427-2.471,0.774-3.372,1.83c-0.614,0.73-0.877,1.622-1.185,2.447c-0.632,1.73-1.414,3.392-2.266,5.019
			c-0.924,1.761-1.963,3.47-3.182,5.052c-0.294,0.387-0.597,0.784-0.786,1.254c-0.195,0.468-0.217,1.003-0.1,1.492
			c0.242,0.989,0.874,1.798,1.491,2.546c0.297,0.359,0.623,0.691,0.951,1.02c-0.32,0.59-0.638,1.182-0.915,1.793
			c-0.237,0.514-0.408,1.057-0.644,1.57c-0.491,1.071-1.005,2.132-1.441,3.228l-1.366,3.578l-1.396,3.451
			c-0.281,0.695-0.547,1.394-0.793,2.105c-0.24,0.709-0.44,1.492-0.32,2.28c0.034,0.228,0.019,0.474,0.095,0.696
			c0.42,1.163,1.21,2.04,1.895,2.975c0.288,0.385,0.51,0.816,0.793,1.205c0.559,0.766,1.161,1.502,1.697,2.282
			c0.589,0.855,1.18,1.708,1.789,2.548c0.045,0.231,0.086,0.463,0.147,0.692c0.226,0.82,0.591,1.66,1.249,2.285
			c0.439,0.425,1.004,0.668,1.549,0.868c1.154,0.418,2.387,0.472,3.568,0.399c1.287-0.074,2.561-0.265,3.826-0.477
			c1.23-0.209,2.458-0.438,3.674-0.739c0.734-0.189,1.474-0.442,2.125-0.893c0.651-0.437,1.16-1.171,1.232-1.974
			c0.024-0.232,0.097-0.469,0.074-0.706c-0.178-1.212-0.645-2.314-1.323-3.297c-0.285-0.395-0.579-0.81-0.984-1.106
			c-0.797-0.586-1.754-0.854-2.693-1.015c-0.236-0.04-0.473-0.051-0.71-0.07c-0.662-1.126-0.996-2.435-1.028-3.804
			c-0.027-0.882,0.055-1.787,0.26-2.669c0.311-1.332,0.821-2.617,1.395-3.863c0.34-0.749,0.762-1.461,1.152-2.188
			c0.658-1.216,1.191-2.488,1.662-3.788c0.442,0.033,0.887,0.044,1.33,0.007c1.737-0.145,3.444-0.816,4.805-1.933
			c0.424-0.35,0.789-0.752,1.125-1.176c0.636-0.404,1.253-0.837,1.82-1.335c0.1-0.09,0.218-0.19,0.294-0.27
			c0.102-0.109,0.247-0.258,0.249-0.272c0.002-0.017-0.121,0.053-0.228,0.125c-0.151,0.104-0.333,0.248-0.494,0.382
			c-0.281,0.202-0.542,0.429-0.83,0.619c-0.145,0.096-0.3,0.17-0.448,0.261c0.247-0.349,0.483-0.705,0.705-1.064
			c1.267-2.035,2.314-4.265,4.319-5.571c1.041-0.739,2.221-1.383,3.112-2.378c0.9-0.973,1.533-2.149,2.016-3.359
			c0.916-2.373,1.463-4.846,2.15-7.277c0.791-2.948,1.454-5.929,2.039-8.923c0.086-0.444,0.25-0.874,0.338-1.317
			c0.456-2.326,0.849-4.663,1.226-7.002c0.163-0.965,0.39-1.921,0.545-2.889l0.436-3.052c0.193,0.661,0.383,1.322,0.608,1.974
			c0.322,0.951,0.689,1.891,1.06,2.826c0.359,0.91,0.725,1.82,1.187,2.695c0.55,1.059,1.343,2.006,2.285,2.738
			c0.137,0.11,0.225,0.279,0.36,0.388c0.694,0.543,1.354,1.102,1.817,1.845c-0.303,0.354-0.584,0.729-0.813,1.135
			c-0.216,0.389-0.35,0.815-0.514,1.223c-0.356,0.84-0.608,1.755-0.692,2.651c-0.06,0.476-0.163,0.919-0.457,1.284
			c-0.281,0.372-0.671,0.674-1.049,0.982c-0.74,0.602-1.513,1.142-2.286,1.717c-0.455,0.355-0.91,0.818-1.099,1.423
			c-0.198,0.598-0.136,1.228,0.001,1.795c0.041,0.169,0.013,0.357,0.065,0.523c0.272,0.873,0.678,1.66,0.901,2.516
			c0.095,0.354,0.089,0.725,0.143,1.084c0.101,0.708,0.183,1.431,0.115,2.151c-0.032,0.352-0.088,0.699-0.154,1.044
			c-0.298,0.52-0.606,1.035-0.887,1.564c-0.341,0.665-0.679,1.33-0.962,2.055c-0.306,0.72-0.374,1.723,0.222,2.395
			c0.555,0.658,1.288,0.982,1.964,1.38c0.362,0.192,0.733,0.366,1.108,0.528c-0.086,0.923-0.129,1.85-0.112,2.777
			c0.009,0.639,0.097,1.274,0.124,1.91c0.053,1.328,0.124,2.658,0.31,3.975c0.195,1.429,0.513,2.831,0.66,4.255
			c0.155,1.385,0.104,2.779-0.183,4.136c-0.155,0.823-0.336,1.651-0.422,2.502c-0.042,0.425-0.062,0.855-0.043,1.286
			c0.022,0.411,0.034,0.919,0.4,1.293c0.21,0.205,0.459,0.365,0.702,0.44c1.263,0.38,2.555,0.642,3.851,0.849
			c0.534,0.089,1.061,0.239,1.601,0.306c1.064,0.13,2.136,0.154,3.201,0.201c1.111,0.047,2.227,0.043,3.337-0.043
			c0.353,0.075,0.709,0.139,1.068,0.173c0.372,0.048,0.752-0.007,1.123,0.029c0.775,0.057,1.555,0.116,2.334,0.067
			c0.844-0.047,1.679-0.169,2.511-0.286c0.809-0.111,1.621-0.212,2.43-0.349c0.98-0.156,1.929-0.463,2.847-0.831
			c0.135-0.056,0.299-0.039,0.435-0.093c0.36-0.137,0.704-0.312,1.052-0.476c0.081-0.042,0.167-0.079,0.253-0.125
			c0.01,0.05,0.019,0.092,0.024,0.096c0.011,0.008,0.037-0.073,0.052-0.147c0-0.001,0-0.001,0-0.002
			c0.067-0.041,0.135-0.08,0.2-0.144c0.179-0.179,0.192-0.441,0.161-0.633c-0.057-0.326-0.07-0.643-0.163-0.955
			c-0.103-0.318-0.237-0.621-0.383-0.918c-0.027-0.161-0.045-0.323-0.079-0.483c-0.074-0.359-0.169-0.715-0.283-1.066
			c-0.122-0.347-0.217-0.697-0.477-1.072c-0.16-0.237-0.437-0.455-0.714-0.556c-0.277-0.108-0.545-0.14-0.787-0.162l-1.36-0.106
			c-0.899-0.085-1.798-0.196-2.691-0.365c-1.103-0.208-2.208-0.463-3.272-0.851c-0.401-0.147-0.798-0.305-1.189-0.478
			c-0.384-0.181-0.801-0.327-1.099-0.616c-0.317-0.288-0.327-0.751-0.272-1.166l0.151-1.278c0.121-1.02,0.326-2.03,0.502-3.043
			c0.358-2.056,0.549-4.132,0.616-6.222c0.011-0.364,0.062-0.726,0.122-1.086c1.12-0.346,2.213-0.808,3.167-1.506
			c0.521-0.376,1.037-0.795,1.409-1.341c0.723-1.095,0.904-2.397,1.049-3.635c0.105-0.923,0.152-1.856,0.135-2.787
			c0.182-0.565,0.297-1.151,0.34-1.736c0.046-0.642-0.03-1.281-0.069-1.911l-0.32-3.906c-0.103-1.396,0.046-2.805,0.5-4.144
			c0.427-1.304,1.077-2.522,1.731-3.732c0.792-1.456,1.542-2.981,1.929-4.626c0.063-0.24,0.189-0.469,0.239-0.715
			c0.247-1.287,0.275-2.642-0.081-3.91c-0.142-0.519-0.269-1.061-0.553-1.533c-0.539-0.947-1.37-1.641-2.124-2.367
			c-0.606-0.582-1.247-1.16-1.788-1.802c0.019-0.012,0.039-0.02,0.058-0.032c0.518-0.327,1.009-0.732,1.375-1.263
			c0.245-0.359,0.373-0.792,0.443-1.218c0.174-0.93-0.288-1.794-0.687-2.501c-0.442-0.801-0.921-1.583-1.352-2.389
			c-0.421-0.784-0.794-1.591-1.166-2.4c-0.455-0.976-0.937-1.926-1.521-2.848c-0.087-0.135-0.113-0.312-0.207-0.446
			c-0.487-0.716-1.174-1.266-1.863-1.733c-0.285-0.197-0.53-0.45-0.816-0.642c-0.224-0.149-0.452-0.29-0.681-0.432
			c0.062-0.447,0.11-0.902,0.096-1.356c-0.006-1.19-0.219-2.377-0.584-3.505c-0.239-0.764-0.6-1.476-0.921-2.199
			c-0.671-1.51-1.454-2.966-2.33-4.358l-2.887-4.487c-0.923-1.464-1.787-2.955-2.676-4.446c-0.551-0.889-1.188-1.771-2.051-2.427
			c-0.857-0.657-1.838-1.069-2.768-1.524c-0.228-0.113-0.433-0.268-0.645-0.405c-0.039-0.171-0.085-0.341-0.107-0.513
			c-0.057-0.51-0.101-1.024-0.218-1.523l-0.404-1.614c-0.12-0.524-0.189-1.059-0.263-1.594c-0.089-0.646-0.256-1.275-0.455-1.895
			c-0.028-0.092,0.019-0.203-0.007-0.296c-0.141-0.485-0.321-0.959-0.479-1.439c-0.065-0.198-0.051-0.417-0.111-0.617
			c-0.095-0.317-0.215-0.627-0.31-0.943c0.407-0.047,0.812-0.106,1.214-0.184c0.505-0.097,0.993-0.27,1.492-0.383
			c0.523-0.118,1.039-0.236,1.563-0.375c0.263-0.075,0.552-0.177,0.787-0.4c0.232-0.219,0.36-0.541,0.372-0.839
			c0.026-0.655-0.249-1.212-0.51-1.724l-0.782-1.545l-1.473-3.028c-0.6-1.217-1.293-2.385-2.039-3.517
			c-0.111-0.167-0.157-0.377-0.266-0.545c-0.238-0.37-0.492-0.73-0.746-1.089c0.192,0.024,0.381,0.069,0.573,0.082
			c0.7,0.038,1.398-0.017,2.09-0.076c1.445-0.098,2.891-0.398,4.221-0.996c1.462-0.614,2.703-1.613,3.895-2.598
			c1.163-0.96,2.33-1.932,3.638-2.649c0.498-0.273,1.018-0.488,1.549-0.672c-0.245,0.34-0.48,0.687-0.7,1.043
			c-0.315,0.51-0.562,1.059-0.854,1.579c-0.615,1.082-1.21,2.179-1.703,3.323c-0.533,1.242-1.003,2.496-1.455,3.774
			c-0.193,0.616-0.309,1.365,0.075,1.979c0.18,0.295,0.454,0.554,0.813,0.662c0.362,0.114,0.768-0.003,1.054-0.221
			c0.68-0.568,0.973-1.31,1.407-1.965c0.401-0.68,0.783-1.37,1.164-2.061c0.112-0.205,0.293-0.372,0.408-0.576
			c0.596-1.071,1.151-2.165,1.719-3.251c0.235-0.448,0.541-0.858,0.778-1.306c0.469-0.882,0.886-1.791,1.367-2.665
			c0.161-0.292,0.317-0.587,0.477-0.88c1.375-0.065,2.8-0.263,4.054-0.9c0.529-0.262,1.068-0.558,1.481-1.009
			c0.409-0.446,0.655-0.988,0.939-1.479c0.273-0.501,0.664-0.92,1.041-1.361c0.286-0.342,0.571-0.711,0.709-1.157
			c0.145-0.44,0.145-0.925,0.014-1.367c-0.105-0.363-0.3-0.693-0.539-0.987c0.027-0.103,0.053-0.207,0.085-0.307
			c0.068-0.223,0.17-0.435,0.256-0.663c0.103-0.278,0.093-0.59,0.01-0.871c-0.011-0.041,0.057-0.095,0.044-0.138
			c-0.056-0.225-0.182-0.428-0.299-0.618c-0.046-0.079-0.027-0.191-0.081-0.27c-0.105-0.156-0.265-0.265-0.379-0.402
			c-0.052-0.062-0.119-0.115-0.18-0.172c0.019-0.499-0.05-1.009-0.291-1.47c-0.026-0.051-0.062-0.095-0.092-0.144
			c0.571-1.03,1.146-2.058,1.698-3.098c2.012-3.727,3.953-7.49,5.869-11.264c1.268-2.549,2.539-5.103,3.805-7.648
			c2.694-5.291,5.436-10.557,8.205-15.808c2.999-5.688,6.062-11.346,9.348-16.875c3.186-5.381,6.62-10.614,10.265-15.688
			c4.406-6.124,9.12-12.024,14.243-17.562c0.747-0.832,1.571-1.598,2.367-2.382c4.057-4.222,8.4-8.169,12.991-11.806
			c1.873-1.538,3.905-2.868,5.877-4.271c0.956-0.716,1.986-1.321,2.979-1.982c1.01-0.635,1.983-1.331,3.022-1.917
			c2.071-1.184,4.111-2.43,6.276-3.439c6.598-3.289,13.576-5.795,20.764-7.422c0.417-0.096,0.869-0.201,1.248-0.288
			c0.356-0.092,0.85-0.221,1.143-0.297C565.423,182.389,564.98,182.449,564.572,182.516z M457.652,293.44
			c-1.254,2.438-2.595,4.85-3.951,7.251c-0.479,0.827-0.955,1.722-1.414,2.611c-0.487,0.191-0.934,0.436-1.374,0.664
			c-0.516,0.269-1.028,0.479-1.608,0.54c-0.569,0.08-1.196,0.104-1.744,0.402c-1.086,0.607-1.429,1.852-2.002,2.785
			c-0.637,1.199-1.873,1.857-3.194,2.151c-0.196,0.047-0.408,0.006-0.605,0.038c-1.038,0.156-2.111,0.225-3.178,0.261
			c-0.442,0.008-0.882-0.072-1.323-0.085c-0.026-0.001-0.053-0.002-0.079-0.003c0.407-0.683,0.815-1.364,1.193-2.063
			c0.34-0.625,0.621-1.28,0.966-1.901c0.72-1.294,1.471-2.573,2.163-3.883c0.756-1.417,1.452-2.864,2.316-4.212
			c0.832-1.314,1.846-2.51,3.015-3.522c1.4-1.254,2.979-2.204,4.634-3.145c0.239-0.149,0.52-0.243,0.751-0.417
			c0.192-0.143,0.374-0.306,0.549-0.479c0.245,0.101,0.485,0.217,0.743,0.283c0.311,0.09,0.635,0.141,0.943,0.241
			c0.299,0.095,0.579,0.242,0.852,0.398c0.331,0.186,0.68,0.312,1.036,0.434c0.053,0.019,0.07,0.107,0.12,0.129
			c0.265,0.111,0.544,0.202,0.806,0.333c0.108,0.055,0.164,0.182,0.265,0.244c0.149,0.101,0.31,0.194,0.451,0.31
			C457.871,293.017,457.761,293.228,457.652,293.44z"/>
		<path style="fill:#350900;" d="M706.852,276.121c-0.182-3.936-0.931-7.819-2.016-11.581c-2.55-9.366-7.011-18.116-12.549-26.027
			c-8.375-11.974-19.248-22.05-31.241-30.312c-7.183-4.961-14.781-9.324-22.722-12.973c-16.109-7.412-33.624-11.791-51.305-12.848
			c-4.173-0.221-8.378-0.387-12.584-0.316c-0.743,0.008-1.501,0.016-2.266,0.024c-0.765,0.053-1.533,0.106-2.313,0.159
			c-1.341,0.104-2.698,0.209-4.43,0.344c1.78-0.079,2.956-0.131,4.122-0.182c2.619-0.178,5.248-0.124,7.87-0.144
			c6.442,0.087,12.889,0.466,19.265,1.386c1.074,0.147,2.152,0.265,3.223,0.43l3.203,0.554l3.203,0.555l3.172,0.711
			c8.818,1.995,17.443,4.813,25.766,8.339c9.015,3.824,17.675,8.509,25.748,14.063c7.837,5.41,15.184,11.57,21.62,18.592
			c7.791,8.436,14.399,18.051,18.786,28.687c0.307,0.793,0.614,1.588,0.923,2.385c0.271,0.811,0.542,1.619,0.811,2.425
			c1.405,4.224,2.593,8.551,3.082,12.984c0.532,4.421,0.247,8.952-1.047,13.227c-1.044,3.541-2.662,6.885-4.428,10.12
			c-1.748,3.189-3.684,6.273-5.755,9.264c-2.113,2.962-4.362,5.825-6.748,8.57c-5.646,6.434-11.956,12.232-18.587,17.633l0.055-0.08
			l-0.702,0.032l-0.541,0.029c-0.148,0.005-0.295,0.017-0.442,0.037c-1.18,0.1-2.341,0.363-3.471,0.705
			c-2.265,0.685-4.367,1.855-6.187,3.333c-0.849,0.711-1.692,1.44-2.459,2.252c-0.336,0.337-0.628,0.745-0.899,1.155
			c-0.078,0.018-0.153,0.046-0.231,0.062c-0.287,0.065-0.575,0.158-0.873,0.191c-0.622,0.062-1.25,0.047-1.88,0.084
			c-0.683,0.035-1.369,0.1-2.053,0.173c-0.662,0.08-1.336,0.134-1.989,0.359c-0.39,0.137-0.773,0.351-1.064,0.676
			c-0.073,0.08-0.138,0.169-0.195,0.262c-0.061,0.124-0.192,0.282-0.129,0.389c0.252,0.225,0.344,0.319,0.528,0.45
			c0.098,0.071,0.157,0.195,0.257,0.266c0.528,0.366,1.122,0.619,1.724,0.805c0.212,0.06,0.414,0.159,0.627,0.219
			c-0.455,0.305-0.91,0.61-1.369,0.901c-1.593,1.01-3.233,1.937-5.026,2.515c-1.104,0.353-2.26,0.592-3.434,0.578
			c-0.858,0.003-1.817-0.189-2.385-0.87c-0.273-0.34-0.317-0.828-0.137-1.23c0.168-0.408,0.455-0.758,0.662-1.157
			c0.505-0.943,0.84-1.999,0.877-3.095c0.009-0.549-0.027-1.128-0.264-1.667c-0.208-0.536-0.757-1.044-1.402-1.04
			c-0.63-0.008-1.159,0.305-1.585,0.663c-0.424,0.365-0.778,0.799-1.059,1.271c-0.259,0.449-0.503,0.905-0.69,1.395
			c-0.013,0.03-0.011,0.066-0.022,0.098c-0.057-0.793-0.115-1.586-0.201-2.374l-0.148-1.158c-0.043-0.379-0.153-0.808-0.101-1.029
			c0.089-0.508,0.954-0.828,1.589-1.278c0.82-0.548,1.531-1.235,2.164-1.971c0.943-1.119,1.632-2.47,1.82-3.923
			c0.168-0.415-0.298-0.148-0.444-0.145l-0.636,0.145c-0.425,0.095-0.852,0.189-1.275,0.304c-1.706,0.445-3.406,1.28-4.579,2.647
			c-0.234,0.273-0.474,0.542-0.705,0.82c-0.661-0.813-1.382-1.597-2.217-2.254c-1.157-0.876-2.366-1.551-3.857-1.95
			c-0.275-0.054-0.656,0.139-0.753,0.41c-0.118,0.254-0.117,0.486-0.135,0.709c-0.021,0.453,0.038,0.899,0.139,1.329
			c0.315,1.305,1.113,2.423,2.086,3.298c0.584,0.525,1.2,1.026,1.86,1.465c0.626,0.481,1.543,0.709,1.716,1.349
			c0.103,0.329,0.106,0.736,0.103,1.129c0.009,0.384,0.018,0.773,0.028,1.188c0.016,0.375-0.02,0.751-0.067,1.125
			c-0.009,0.053,0.002,0.112,0.002,0.168c-0.186-0.896-0.498-1.774-1.018-2.587c-0.216-0.326-0.678-0.732-1.245-0.64
			c-0.524,0.094-0.826,0.4-1.118,0.608l-0.884,0.694c-0.285,0.233-0.628,0.478-0.846,0.884c-0.136,0.249-0.166,0.572-0.084,0.835
			c0.078,0.266,0.224,0.478,0.376,0.665c0.314,0.367,0.634,0.686,0.947,1.034c0.475,0.515,0.965,1.02,1.495,1.478
			c0.528,0.459,1.086,0.884,1.542,1.41c0.583,0.621,0.785,1.451,0.791,2.274c0.022,0.827,0.102,1.759,0.545,2.535
			c0.408,0.784,1.045,1.433,1.786,1.872c0.209,0.123,0.418,0.246,0.631,0.364c-0.07,0.043-0.142,0.085-0.207,0.131
			c-0.374,0.263-0.705,0.613-0.88,1.056c-0.146,0.399-0.134,0.852,0.048,1.247c0.166,0.401,0.63,0.711,1.091,0.648
			c0.904-0.129,1.472-0.914,2.165-0.878c0.33,0.01,0.658,0.213,1.025,0.395c0.371,0.172,0.733,0.367,1.121,0.502
			c0.759,0.316,1.56,0.513,2.363,0.678c2.609,0.46,5.281,0.177,7.769-0.649c1.22-0.089,2.435-0.271,3.621-0.593
			c2.553-0.685,4.948-1.939,7.004-3.584l0.25-0.209c0.04-0.03,0.137-0.152,0.096-0.043c-0.006,0.047-0.003,0.105,0.009,0.165
			c0.016,0.125,0.076,0.322,0.142,0.466c0.139,0.308,0.357,0.581,0.635,0.772c0.058,0.047,0.18,0.103,0.271,0.151
			c0.093,0.023,0.222,0.15,0.251-0.005c0.052-0.09,0.097-0.196,0.143-0.297l0.094-0.211l0.381-0.842
			c1.044-2.19,2.238-4.309,3.442-6.418c0.714-1.267,1.482-2.504,2.188-3.78c1.432-2.583,2.566-5.378,3.069-8.304
			c0.048-0.347,0.105-0.692,0.172-1.036c0.016-0.078,0.032-0.159,0.048-0.241c8.954-7.135,17.372-15.052,24.29-24.24
			c2.375-3.118,4.528-6.406,6.476-9.809c1.975-3.383,3.718-6.931,4.95-10.676C706.485,284.039,707.051,280.056,706.852,276.121z"/>
	</g>
	<g>
		<path style="fill:#350900;" d="M298.24,340.09c-0.146-0.83-0.335-1.654-0.547-2.472c0.051-2.668,0.127-5.336,0.144-8.004
			c0.026-3.894-0.068-7.787-0.179-11.679c-0.072-2.404-0.145-4.816-0.217-7.218c-0.084-3.631-0.109-7.268-0.41-10.891
			c-0.189-2.166-0.419-4.335-0.866-6.475c-0.907-4.319-2.777-8.561-5.857-11.777c-0.728-0.748-1.445-1.519-2.298-2.151
			c-0.171-0.133-0.365-0.247-0.566-0.35c-0.06-0.2-0.118-0.401-0.178-0.597c-0.203-0.691-0.454-1.37-0.695-2.073
			c-0.149-0.433-0.317-0.867-0.443-1.31c-0.092-0.338-0.184-0.672-0.275-1.007c-0.047-0.159-0.118-0.375-0.329-0.416
			c-0.202-0.013-0.346,0.099-0.512,0.148c-0.385,0.155-0.798,0.241-1.199,0.358c-0.462,0.126-0.902,0.303-1.332,0.508
			c-0.013-0.167-0.11-0.302-0.224-0.44c-0.074-0.091-0.175-0.178-0.23-0.278c-0.086-0.151-0.14-0.313-0.154-0.48
			c-0.012-0.1,0.048-0.209,0.081-0.312c0.054-0.142,0.028-0.274-0.029-0.406c0.521,0.229,1.064,0.414,1.629,0.522
			c1.31,0.255,2.735,0.128,3.975-0.459c1.59-0.745,2.888-2.115,3.487-3.785c0.3-0.83,0.395-1.743,0.315-2.603
			c-0.074-0.866-0.274-1.689-0.462-2.505c-0.242-0.992-0.568-2.126-1.5-2.794c-0.941-0.673-2.162-0.483-3.091-0.061
			c-0.364,0.158-0.71,0.35-1.04,0.564l-0.17,0.113c-0.043,0.021-0.138,0.126-0.104,0.017l0.052-0.455
			c0.072-0.781,0.061-1.568-0.031-2.345c-0.181-1.554-0.64-3.075-1.375-4.457c-0.424-0.835-0.946-1.619-1.541-2.346
			c-0.587-0.733-1.262-1.404-2.025-1.965c-3.086-2.36-7.434-2.74-10.967-1.337c-0.691,0.284-1.374,0.595-2.037,0.95
			c-0.122,0.016-0.228,0.026-0.322,0.049c-0.296,0.059-0.587,0.143-0.874,0.238c-0.703,0.243-1.375,0.59-1.98,1.028
			c-0.408,0.296-0.755,0.663-1.111,1.012c-0.75,0.728-1.364,1.575-1.932,2.425c-0.618,0.914-1.234,1.851-2.121,2.51
			c-0.857,0.65-1.921,0.928-2.967,1.152c-0.635,0.143-1.277,0.265-1.91,0.488c-0.623,0.223-1.257,0.589-1.628,1.186
			c-0.108,0.171-0.254,0.334-0.314,0.541c-0.171,0.533-0.027,1.167,0.352,1.565c0.368,0.406,0.878,0.634,1.387,0.724
			c0.42,0.077,0.848,0.142,1.271,0.126c0.829-0.037,1.65-0.137,2.475-0.188c0.436-0.027,0.872-0.067,1.307-0.105
			c0.008,0.022,0.009,0.046,0.019,0.066c0.138,0.293,0.348,0.531,0.556,0.746c0.146,0.139,0.324,0.241,0.452,0.387
			c0.268,0.309,0.435,0.654,0.514,1.033c0.088,0.405,0.072,0.863-0.135,1.25c-0.202,0.377-0.548,0.663-0.866,0.968
			c-0.19,0.187-0.379,0.374-0.554,0.574c-0.163,0.202-0.371,0.391-0.474,0.703c-0.027,0.087-0.098,0.184-0.086,0.292
			c0.038,0.287,0.246,0.478,0.435,0.59c0.195,0.116,0.402,0.183,0.606,0.239c0.166,0.045,0.311,0.153,0.477,0.198
			c0.235,0.065,0.475,0.109,0.712,0.161c0.011,0.088,0.063,0.177,0.062,0.266c-0.006,0.193-0.044,0.384-0.035,0.577
			c0.003,0.209,0.032,0.423,0.01,0.633c-0.02,0.204-0.091,0.4-0.171,0.59c-0.094,0.238-0.138,0.523-0.018,0.807
			c0.017,0.039-0.021,0.107,0.008,0.151c0.157,0.258,0.451,0.235,0.632,0.261c0.081,0.005,0.148,0.076,0.228,0.085
			c0.042,0.005,0.086,0.004,0.129,0.005c-0.146,0.356-0.252,0.746-0.225,1.159c0.017,0.286,0.145,0.557,0.287,0.798
			c0.145,0.265,0.362,0.452,0.472,0.655c0.112,0.202,0.154,0.439,0.166,0.695c0.032,0.543-0.078,1.203,0.254,1.754
			c0.324,0.516,0.897,0.803,1.476,0.917c0.713,0.138,1.398,0.002,2.064,0.01c0.1,0.003,0.195,0.071,0.294,0.076
			c0.517,0.033,1.041,0.091,1.551,0.224c0.211,0.056,0.397,0.182,0.598,0.261c0.283,0.106,0.565,0.225,0.836,0.364
			c0.033,0.307,0.047,0.616,0.026,0.921c-0.017,0.292-0.02,0.597-0.118,0.882c-0.197,0.598-0.576,1.1-1.029,1.526
			c-0.496,0.469-1.083,0.888-1.538,1.45c-0.215,0.275-0.391,0.597-0.452,0.954c-0.061,0.357-0.014,0.718,0.05,1.057
			c0.155,0.815,0.387,1.607,0.661,2.387c0.039,0.116,0.018,0.251,0.057,0.367c0.204,0.609,0.449,1.203,0.686,1.798
			c0.095,0.247,0.134,0.514,0.228,0.762c0.134,0.34,0.285,0.674,0.429,1.01c-0.496,0.674-0.954,1.375-1.411,2.075
			c-0.358,0.561-0.638,1.169-0.985,1.735c-0.72,1.184-1.416,2.385-2.037,3.625c-0.681,1.34-1.267,2.724-1.879,4.093
			c-0.563,1.346-1.151,2.681-1.674,4.045c-0.644,1.642-1.152,3.336-1.569,5.049c-0.067,0.252-0.195,0.491-0.247,0.747l-0.422,2.011
			l-0.327,2.027c-0.103,0.556-0.225,1.11-0.295,1.672c-0.157,1.106-0.201,2.221-0.296,3.331c-0.037,0.459-0.068,0.918-0.092,1.378
			c-0.148-0.045-0.295-0.095-0.444-0.138c-0.829-0.241-1.666-0.458-2.513-0.632c-0.57-0.119-1.151-0.174-1.723-0.282
			c-1.192-0.221-2.391-0.427-3.606-0.505c-1.315-0.087-2.635-0.055-3.944,0.057c-1.272,0.092-2.544,0.351-3.783,0.557
			c-0.746,0.104-1.514,0.113-2.168-0.2c-0.326-0.154-0.635-0.387-0.993-0.57c-0.351-0.192-0.804-0.283-1.204-0.193
			c-0.235,0.044-0.48,0.062-0.697,0.142c-0.78,0.305-1.563,0.61-2.345,0.915c-21.077-11.18-88.527-53.92-137.898-68.926
			c39.429,12.551,135.773,69.675,135.497,69.779l-1.36,0.53l-0.68,0.264c-0.22,0.088-0.479,0.152-0.66,0.362
			c-0.278,0.351-0.103,0.843,0.194,1.096c0.118,0.096,0.251,0.157,0.387,0.206c-0.184,0.08-0.367,0.166-0.542,0.275
			c-0.361,0.219-0.689,0.502-0.962,0.827c-0.26,0.316-0.492,0.674-0.579,1.106c-0.044,0.259-0.027,0.541,0.096,0.793
			c0.115,0.256,0.38,0.454,0.643,0.509c0.076,0.019,0.142,0.094,0.222,0.102c0.414,0.03,0.769-0.051,1.149-0.072
			c0.155-0.012,0.31,0.044,0.465,0.037c0.118-0.005,0.237-0.019,0.355-0.03c-0.337,0.4-0.633,0.837-0.872,1.306
			c-0.163,0.318-0.298,0.651-0.411,0.991c-0.056,0.17-0.107,0.343-0.148,0.517l-0.032,0.131l-0.003,0.022
			c-0.002,0.01,0.001,0.031-0.013,0.017l-0.791-0.394l-0.955-0.447c-0.864-0.388-1.759-0.698-2.641-1.034
			c-0.92-0.352-1.849-0.682-2.789-0.977c-0.084-0.012-0.326-0.133-0.465-0.111l-0.262,0.405l-0.395,0.622l-0.781,1.249
			c-0.141,0.228-0.285,0.469-0.371,0.748c-0.088,0.271-0.098,0.618,0.075,0.888c0.373,0.517,0.901,0.653,1.355,0.931l2.812,1.523
			l0.404,0.224c-0.608-0.105-1.251-0.009-1.791,0.344c-0.225,0.14-0.231,0.534-0.036,0.696c0.164,0.177,0.373,0.277,0.576,0.351
			l1.175,0.441l2.596,0.955c0.424,0.151,0.879,0.343,1.374,0.366c0.244,0.013,0.499,0.006,0.749-0.091
			c0.126-0.043,0.246-0.124,0.346-0.224c0.045-0.051,0.098-0.116,0.119-0.168c0.013-0.027,0.022-0.052,0.03-0.082
			c0.025-0.018,0.077,0.002,0.116-0.001l0.242,0.026l0.484,0.061l0.965,0.148c0.363,0.062,0.713,0.198,1.072,0.275
			c0.94,0.209,1.872,0.459,2.788,0.761c0.458,0.151,0.913,0.312,1.363,0.489l0.671,0.273c0.221,0.091,0.467,0.205,0.745,0.17
			c0.233-0.03,0.413-0.185,0.553-0.331c0.141-0.147,0.277-0.299,0.403-0.462c0.244-0.324,0.479-0.699,0.49-1.154
			c0.022-0.464-0.351-0.855-0.729-0.997l-1.11-0.427c-0.728-0.298-1.434-0.652-2.104-1.064c-0.517-0.32-1.017-0.667-1.496-1.041
			c-0.238-0.184-0.475-0.379-0.592-0.637c-0.118-0.256-0.065-0.557,0.009-0.847c0.166-0.662,0.379-1.311,0.617-1.951
			c0.227,0.247,0.488,0.464,0.779,0.635c0.371,0.231,0.805,0.299,1.21,0.399c0.862,0.179,1.747,0.129,2.587-0.033
			c0.913-0.169,1.792-0.451,2.699-0.569c0.871-0.112,1.8-0.083,2.561,0.333c0.926,0.427,1.5,1.532,2.672,1.816
			c0.161,0.043,0.319,0.131,0.49,0.144c0.9,0.06,1.711-0.262,2.506-0.502c0.331-0.101,0.678-0.137,1.011-0.198
			c0.389-0.077,0.789-0.13,1.189-0.146c0.029,0.028,0.053,0.062,0.083,0.09c0.179,0.151,0.388,0.265,0.562,0.419
			c0.369,0.313,0.73,0.642,1.139,0.906c0.439,0.292,0.906,0.535,1.359,0.796c0.439,0.26,0.875,0.518,1.316,0.78
			c0.535,0.311,1.114,0.535,1.704,0.714c0.088,0.025,0.154,0.112,0.242,0.139c0.297,0.094,0.6,0.162,0.905,0.226
			c-0.025,0.995-0.371,1.953-0.841,2.844c-0.316,0.619-0.624,1.256-0.927,1.899c-0.316,0.668-0.576,1.391-0.62,2.154
			c-0.049,0.76,0.096,1.508,0.287,2.219c0.206,0.772,0.46,1.521,0.595,2.293c0.124,0.771,0.119,1.563,0.007,2.344
			c-0.212,1.523-0.75,2.98-1.055,4.507c-0.187,0.924-0.265,1.874-0.104,2.84c0.05,0.245,0.177,0.509,0.379,0.686
			c0.197,0.181,0.433,0.288,0.661,0.368c0.464,0.149,0.909,0.24,1.362,0.363c0.227,0.057,0.443,0.155,0.666,0.227
			c-0.009,0.2-0.015,0.399-0.014,0.598c0.011,1.182,0.164,2.343,0.274,3.503l0.375,3.48c0.192,1.556,0.385,3.122,0.577,4.674
			l1.062,9.763l1.249,10.566l0.556,5.142c0.18,1.714,0.345,3.435,0.658,5.138c0.373,2.051,0.965,4.103,2.038,5.925
			c1.064,1.83,2.58,3.302,3.64,5.072c0.312,0.525,0.522,1.103,0.706,1.671c0.518,1.509,0.193,3.136-0.411,4.616
			c-0.564,1.492-1.339,2.988-1.386,4.65c-0.061,1.367,0.439,2.694,1.114,3.85c0.682,1.14,1.504,2.174,2.228,3.269
			c0.704,1.092,1.353,2.284,1.46,3.592l0.018,0.376l0.007,0.158c-0.022,0.036-0.082,0.052-0.121,0.078
			c-0.223,0.118-0.442,0.262-0.646,0.415c-0.413,0.307-0.783,0.67-1.102,1.073c-0.638,0.806-1.071,1.781-1.21,2.804
			c-0.105,0.859-0.07,1.714-0.064,2.565c-0.176,0.265-0.349,0.532-0.536,0.789c-0.601,0.878-1.223,1.74-1.859,2.59
			c-0.424,0.575-0.825,1.169-1.291,1.713c-0.969,1.134-2.01,2.205-3.087,3.237c-1.16,1.123-2.363,2.214-3.67,3.172
			c-1.266,0.935-2.598,1.784-3.99,2.514c-0.836,0.448-1.68,0.883-2.54,1.281c-0.808,0.441-1.837,0.693-2.424,1.578
			c-0.158,0.252-0.322,0.523-0.37,0.827c-0.118,0.794,0.138,1.586,0.587,2.207c0.454,0.635,1.148,1.038,1.856,1.271
			c0.588,0.197,1.199,0.344,1.819,0.375c1.222,0.041,2.425-0.131,3.613-0.343c0.696-0.126,1.383-0.309,2.059-0.521
			c1.41,0.05,2.829,0.022,4.236-0.167c1.052-0.141,2.082-0.415,3.089-0.742c2.129-0.649,3.992-1.945,5.673-3.334
			c0.924-0.744,1.829-1.509,2.806-2.168c0.485-0.335,0.994-0.632,1.518-0.899c0.265-0.126,0.533-0.25,0.807-0.356l0.4-0.143
			c0.066-0.033,0.034,0.002,0.047,0.184l0.059,3.46l0.012,0.947c0.27,0.06,0.348,0.041,0.51,0.063l0.433,0.033
			c0.578,0.043,1.157,0.057,1.737,0.061c1.4-0.003,2.802-0.123,4.18-0.377c0.689-0.127,1.372-0.285,2.048-0.471
			c0.346-0.098,0.652-0.189,1.026-0.31l0.176-0.057c0.057-0.021,0.034-0.111,0.054-0.163l0.048-0.292l0.084-0.517
			c0.068-0.408,0.198-0.809,0.246-1.22c0.293-2.151,0.407-4.322,0.395-6.487c0.004-0.895,0.028-1.792-0.01-2.688
			c-0.099-1.765-0.341-3.516-0.604-5.258c-0.32-2.077-0.764-4.14-1.381-6.15c0.014-3.406,0.425-6.823,0.803-10.211
			c0.792-7.026,1.464-14.065,2.118-21.105l0.586-6.532c0.169-2.181,0.258-4.383,0.04-6.569c-0.327-3.302-1.479-6.449-1.629-9.752
			c-0.204-3.294,0.283-6.589,0.989-9.803c0.869-3.851,2.017-7.632,3.042-11.445l0.789-2.899l0.853-2.874
			c0.572-1.916,1.069-3.85,1.819-5.709c0.696-1.875,1.401-3.775,1.753-5.771C298.66,344.112,298.604,342.064,298.24,340.09z"/>
		<g>
			<line style="fill:#350900;" x1="97.592" y1="255.773" x2="97.592" y2="456.995"/>
		</g>
	</g>
	<g>
		<path style="fill:#350900;" d="M236.244,103.525l0.016,0.002c0.005,0,0.009-0.001,0.014-0.001L236.244,103.525z"/>
		<path style="fill:#350900;" d="M320.19,237.546c-0.197-1.092-0.469-2.166-0.717-3.246l-0.444-1.604
			c-0.151-0.534-0.397-1.038-0.647-1.533c-0.519-0.982-1.18-1.9-2.015-2.642c-0.301-0.267-0.632-0.5-0.976-0.714
			c-0.526-0.356-1.1-0.643-1.718-0.829l-0.087-0.026l-0.098-0.119c-0.91-1.1-1.735-2.265-2.505-3.466
			c-0.493-0.829-0.967-1.671-1.418-2.522c-1.13-2.161-2.167-4.371-3.129-6.612c-1.528-3.516-2.863-7.11-4.257-10.682
			c-0.35-0.955-0.703-1.909-1.047-2.866c-0.827-2.283-1.661-4.582-2.666-6.813c-0.838-1.867-1.783-3.685-2.811-5.453
			c-0.195-0.391-0.387-0.783-0.6-1.165c-1.214-2.124-2.624-4.141-4.248-5.975c-0.815-0.914-1.686-1.78-2.612-2.583
			c-0.348-0.3-0.707-0.584-1.065-0.87c-0.555-0.484-1.124-0.952-1.725-1.391c0.2-0.565,0.276-1.166,0.288-1.758
			c0.022-0.628-0.086-1.264-0.258-1.865c-0.005-0.017-0.013-0.033-0.018-0.05c-0.003-0.015-0.004-0.03-0.007-0.044
			c-0.117-0.563-0.409-1.323-1.079-1.666c-0.311-0.15-0.59-0.229-0.847-0.303c-0.218-0.116-0.432-0.236-0.642-0.36
			c0.216-0.48,0.315-1.031,0.245-1.556c-0.061-0.57-0.266-1.095-0.494-1.594l-0.157-0.37l-0.292-0.874l-0.245-0.725l-0.29-0.611
			c-0.02-0.083-0.045-0.167-0.068-0.25l0.072-0.521l0.243-1.769c0.171-0.923,0.335-1.85,0.441-2.809
			c0.007-0.431-0.111-0.896-0.386-1.247c-0.261-0.359-0.609-0.602-0.816-0.925c-0.443-0.653-0.434-1.512-0.305-2.303
			c0.577-2.477,1.158-4.989,1.703-7.502c0.069-0.298,0.139-0.595,0.215-0.891c0.33-1.357,0.647-2.72,0.934-4.097
			c0.44-1.826,0.745-3.681,1-5.548c0.09-0.467,0.186-0.934,0.274-1.402c0.269-1.637,0.36-3.348-0.014-4.998
			c-0.303-1.402-0.994-2.651-1.587-3.903l-0.25-0.599c0.577-0.372,1.083-0.844,1.488-1.393c0.398-0.545,0.688-1.147,0.941-1.761
			l0.005-0.009c0.337-0.573,0.582-1.221,0.678-1.953c0.057-0.444,0.03-0.885-0.012-1.308l0.015-0.158
			c0.009-0.35-0.028-0.704-0.045-1.057c0.653-1.458,1.025-3.05,1.008-4.657c-0.005-0.806-0.074-1.597-0.059-2.381
			c0.002-0.146,0.016-0.292,0.03-0.438c0.022-0.225,0.071-0.448,0.117-0.671c0.101-0.429,0.308-0.9,0.472-1.377
			c0.392-0.925,0.642-2.026,0.695-3.035c0.037-0.535,0.082-1.067,0.122-1.6c0.217-1.515,0.357-3.054,0.531-4.583
			c0.048-0.239,0.113-0.472,0.186-0.703l0.039,0.007c0.082-0.318,0.2-0.624,0.323-0.929c0.475-1.033,1.145-1.995,1.83-2.923
			c1.037-1.411,2.138-2.802,2.957-4.393c0.825-1.575,1.271-3.428,0.924-5.226c-0.357-1.792-1.331-3.345-2.389-4.74l-0.386-0.534
			l-3.261-4.584c-0.781-1.178-1.541-2.369-2.326-3.55l-2.91-4.4l-1.455-2.2l-1.313-2.082c0.976-1.453,2.274-2.746,3.054-4.434
			c0.798-1.737,0.889-3.676,0.813-5.509c-0.086-1.844-0.217-3.669-0.328-5.504c-0.069-0.916-0.084-1.828-0.221-2.768
			c-0.141-0.925-0.449-1.899-1.146-2.63c-0.69-0.705-1.577-1.137-2.464-1.438c-0.887-0.302-1.811-0.506-2.739-0.607
			c-1.86-0.214-3.76-0.047-5.559,0.466c-1.797,0.52-3.487,1.346-5.054,2.337c-0.786,0.496-1.534,1.046-2.292,1.542l-0.202,0.135
			l-0.122-0.268l-0.387,0.11l-0.37,0.178c-0.245,0.112-0.5,0.246-0.709,0.423c-0.431,0.337-0.804,0.755-1.079,1.235
			c-0.286,0.51-0.405,1.011-0.532,1.532c-0.111,0.536-0.12,1.06-0.173,1.542c-0.073,0.949-0.548,1.782-1.224,2.472
			c-0.672,0.692-1.512,1.243-2.338,1.84l-2.424,1.876c-0.121,0.093-0.156,0.126-0.274,0.198c-0.106,0.058-0.293,0.216-0.374,0.344
			c-0.191,0.254-0.31,0.639-0.231,0.989c0.07,0.341,0.274,0.636,0.465,0.802l0.565,0.544c0.387,0.358,0.724,0.733,1.116,1.083
			c0.411,0.335,0.85,0.626,1.3,0.888c0.784,0.478,1.722,0.812,2.697,0.827c-0.002,0.048-0.002,0.097,0.005,0.145l0.022,0.129
			c-1.23,0.257-2.42,0.713-3.436,1.451c-0.53,0.421-1.096,0.809-1.594,1.262c-0.502,0.457-0.969,0.955-1.386,1.496
			c-1.765,2.188-1.997,5.055-3.337,7.177c-0.335,0.537-0.725,1.033-1.177,1.473l-1.439,1.358c-0.973,0.895-1.799,1.983-2.718,2.95
			c-0.803,1.067-1.542,2.196-2.108,3.438c-0.265,0.593-0.567,1.271-0.609,2.009c-0.048,0.647,0.051,1.285,0.229,1.888
			c-0.473,0.582-0.981,1.116-1.396,1.775l-0.604,1.034l-0.602,1.069l-0.601,1.069c-0.188,0.361-0.311,0.749-0.47,1.122
			c-0.295,0.754-0.613,1.505-0.889,2.261l-0.817,2.271c-0.253,0.766-0.441,1.562-0.664,2.341l-0.322,1.175l-0.08,0.293
			c-0.011,0.048-0.04,0.123-0.08,0.219c-0.037,0.081-0.096,0.254-0.111,0.351l-0.063,0.296c-0.148,0.675-0.281,1.351-0.413,2.027
			l-0.124-0.015c-0.366-0.031-0.75,0.046-1.071,0.183c-0.328,0.139-0.629,0.337-0.885,0.582c-0.256,0.245-0.47,0.533-0.624,0.855
			c-0.085,0.16-0.146,0.352-0.188,0.547c-16.259-4.41-42.561-8.655-58.912-12.712c-8.252-2.05-75.787-15.181-75.787-15.181
			l50.656,10.931c8.304,1.879,16.595,3.814,24.867,5.826c16.253,3.959,42.442,8.194,58.471,12.968
			c-0.004,0.004-0.01,0.007-0.014,0.011c-0.204,0.21-0.453,0.337-0.742,0.537c-0.589,0.39-1.049,1.06-1.209,1.733
			c-0.091,0.326-0.149,0.659-0.177,0.993c-0.031,0.354-0.006,0.707,0.062,1.047c0.033,0.17,0.078,0.337,0.132,0.5
			c0.003,0.011,0.01,0.03,0.016,0.047c0,0.001,0,0,0,0.001c-0.002,0.031-0.006,0.078,0.002,0.149
			c0.01,0.083,0.043,0.162,0.044,0.157l0.055,0.112l0.299,0.591c-0.207,0.244-0.389,0.509-0.511,0.804
			c-0.174,0.384-0.243,0.902-0.198,1.3c0.029,0.796,0.33,1.692,0.952,2.312c0.624,0.653,1.505,0.888,2.22,1.048
			c0.723,0.161,1.396,0.338,1.876,0.73c0.985,0.99,2.569,2.098,4.213,1.954c0.198-0.004,0.414-0.023,0.593-0.045
			c0.159-0.017,0.355-0.023,0.569-0.051c0.47-0.068,0.832-0.232,1.2-0.417c0.18-0.094,0.351-0.196,0.517-0.302
			c0.096-0.067,0.132-0.073,0.292-0.206c0.119-0.11,0.264-0.288,0.275-0.568c0.002-0.253-0.114-0.436-0.202-0.547
			c-0.094-0.116-0.15-0.159-0.227-0.236c-0.074-0.068-0.15-0.135-0.221-0.205c0.015-0.081,0.026-0.16,0.033-0.232
			c0.012-0.151,0.029-0.309,0.016-0.508c-0.028-0.369-0.152-0.722-0.351-1.025c-0.322-0.485-0.773-0.787-1.202-1.023
			c0.012-0.039,0.025-0.077,0.036-0.118l0.141-0.512c0.085-0.341,0.126-0.735,0.119-1.1c-0.003-0.185-0.017-0.371-0.041-0.553
			c-0.002-0.032-0.004-0.038-0.006-0.044c0.003-0.011,0.006-0.022,0.012-0.062c0.032-0.276-0.017-0.315-0.023-0.414
			c-0.03-0.161-0.071-0.313-0.114-0.462c0.592-0.001,1.236,0.071,1.823,0.025c0.387-0.012,0.735,0.008,1.017,0.121
			c0.31,0.118,0.605,0.338,1.018,0.562c0.412,0.212,0.859,0.343,1.316,0.392c0.113,0.013,0.232,0.02,0.341,0.021
			c0.004,0,0.017,0,0.027,0c0.029,0.01,0.094,0.045,0.248,0.059c0.296,0.001,0.482-0.026,0.717-0.068
			c0.452-0.085,0.826-0.236,1.257-0.337c0.09-0.037,0.174-0.091,0.261-0.137c-0.113,0.692-0.216,1.386-0.33,2.078l-0.329,3.046
			l-0.342,3.049l-0.18,3.064c-0.104,2.048-0.203,4.075-0.229,6.139c0.007,1.034,0.062,2.066,0.16,3.094l0.081,0.768
			c0.031,0.196-0.005,0.415,0.021,0.757l0.217,1.534l0.015,0.066c-0.01-0.042,0,0.007,0.005,0.07
			c0.005,0.035,0.008,0.077,0.029,0.151c0.023,0.061,0.06,0.225,0.285,0.345l0.14,0.075l0.172-0.044
			c0.389-0.1,0.779-0.216,1.169-0.328c-0.849,2.303-0.926,4.786-0.635,7.151c0.162,1.344,0.48,2.678,0.86,3.957
			c0.372,1.279,0.785,2.558,1.232,3.812c0.888,2.511,1.864,4.976,2.575,7.498c0.711,2.516,1.101,5.119,0.758,7.684
			c-0.322,2.568-1.236,5.072-1.847,7.685c-0.623,2.608-1.01,5.271-1.174,7.945c-0.039,0.669-0.069,1.337-0.081,2.009
			c-0.015,0.669-0.078,1.335-0.06,2.004l0.067,2.009c0.022,0.349,0.056,0.734,0.237,1.142c0.197,0.411,0.523,0.722,0.918,0.91
			c0.696,0.33,1.411,0.399,2.016,0.542l2.002,0.331c1.222,0.149,2.453,0.308,3.707,0.303c0.618,1.6,1.243,3.207,2.025,4.714
			l2.33,4.913c0.772,1.627,1.64,3.22,2.334,4.875l1.029,2.486l0.51,1.245l0.431,1.278l0.863,2.557l0.431,1.278
			c0.172,0.424,0.184,0.861,0.313,1.299c0.437,1.738,0.873,3.478,0.971,5.26c0.155,1.781,0.29,3.55,0.073,5.312
			c-0.068,0.662-0.17,1.32-0.288,1.976c-0.116-0.106-0.242-0.199-0.38-0.271c-0.472-0.253-1.09-0.269-1.574-0.034
			c-0.982,0.463-1.459,1.456-1.735,2.346c-0.263,0.907-0.5,1.773-1.061,2.454c-0.549,0.693-1.286,1.236-2.084,1.655
			c-1.599,0.852-3.48,1.236-5.094,2.293c-0.799,0.517-1.539,1.159-2.083,1.97c-0.549,0.795-0.85,1.845-0.611,2.832l0.033,0.135
			l0.13,0.04c3.487,1.067,7.186,0.746,10.668,0.063c1.754-0.346,3.477-0.814,5.19-1.28c1.719-0.44,3.417-0.985,5.175-1.172
			l2.626-0.326c0.868-0.145,1.767-0.068,2.676-0.258c0.911-0.153,1.794-0.663,2.368-1.396c0.588-0.722,0.962-1.584,1.172-2.474
			c0.408-1.786,0.136-3.708-0.762-5.306c-0.887-1.547-2.375-2.752-4.088-3.257c-0.378-2.874-0.92-5.717-1.176-8.604
			c-0.169-1.458-0.312-2.918-0.442-4.379c-0.017-0.21-0.038-0.42-0.058-0.629l-0.201-4.246c-0.105-2.258-0.177-4.51-0.306-6.771
			l-0.051-1.545c-0.024-0.735-0.054-1.47-0.048-2.204c-0.057-0.732-0.161-1.463-0.24-2.195c-0.147-1.249-0.287-2.5-0.472-3.742
			l2.846,3.949c1.068,1.495,2.223,2.921,3.33,4.384c2.216,2.924,4.357,5.897,6.436,8.922c1.049,1.506,2.115,2.999,3.024,4.59
			l1.446,2.338c0.474,0.784,0.994,1.543,1.383,2.373c0.857,1.619,1.606,3.289,2.415,4.932c0.663,1.625,1.223,3.294,1.833,4.943
			c-0.987-0.289-2.218,0.063-2.702,1.042c-0.237,0.51-0.251,1.068-0.256,1.59c-0.006,0.061-0.024,0.12-0.027,0.182
			c-0.007,0.136-0.008,0.268-0.012,0.402c-0.027,0.343-0.058,0.685-0.084,1.028c-0.077,0.522-0.241,1.027-0.437,1.519l-0.076,0.183
			c-0.012,0.037-0.05,0.068-0.105,0.128c-0.112,0.153-0.139,0.244-0.213,0.37l-0.377,0.704c-0.113,0.257-0.265,0.415-0.451,0.65
			l-0.42,0.685c-0.262,0.453-0.585,0.878-0.876,1.317l-5.295,2.931c-0.425,0.241-0.847,0.488-1.271,0.732
			c-0.404,0.198-0.805,0.397-1.198,0.607c-0.411,0.224-0.863,0.463-1.205,0.888c-0.145,0.176-0.228,0.387-0.286,0.606
			c-0.038,0.122-0.063,0.247-0.075,0.375c-0.002,0.033-0.008,0.066-0.008,0.099c-0.002,0.049,0.004,0.098,0.006,0.146
			c0.007,0.203,0.037,0.404,0.105,0.591c0.346,1.002,1.24,1.721,2.209,2.043c0.238,0.094,0.495,0.148,0.715,0.243
			c0.236,0.115,0.51,0.148,0.754,0.188c0.506,0.076,1.016,0.106,1.524,0.116c1.017-0.027,2.023,0.098,3.037,0.069
			c1.009-0.009,2.019,0.001,3.029,0.044c1.044,0.33,2.169,0.433,3.252,0.261c1.086-0.146,2.157-0.429,3.169-0.85
			c1.478-0.603,2.815-1.462,4.131-2.344c0.141-0.084,0.281-0.168,0.422-0.251c1.296-0.738,2.526-1.564,3.761-2.383l3.712-2.449
			l0.757-0.52l1.095-0.716l1.373-0.894C320.195,238.737,320.289,238.074,320.19,237.546z M250.4,105.36
			c-0.24-0.034-0.481-0.059-0.723-0.081c-0.483-0.044-0.968-0.063-1.453-0.079c-0.143-0.006-0.285-0.069-0.428-0.073
			c-0.753-0.024-1.507,0.004-2.259,0.032c-0.311,0.008-0.622-0.037-0.934-0.027c-0.609,0.045-1.222,0.09-1.834,0.135
			c-0.139,0.007-0.278,0.02-0.418,0.028c0.313-0.23,0.633-0.453,0.959-0.68c0.539-0.378,1.058-0.782,1.601-1.151
			c0.507-0.394,1.025-0.778,1.495-1.222c0.575-0.529,1.058-1.152,1.462-1.817c0.058-0.099,0.168-0.166,0.228-0.265
			c0.315-0.519,0.56-1.075,0.793-1.629c0.09-0.232,0.252-0.433,0.334-0.669c0.173-0.451,0.291-0.921,0.438-1.378
			c0.04,0.214,0.075,0.43,0.119,0.643c0.073,0.355,0.195,0.702,0.254,1.061c0.127,0.747,0.205,1.501,0.316,2.251
			c0.116,0.812,0.242,1.626,0.304,2.446c0.063,0.797,0.058,1.598,0.033,2.396C250.704,105.457,250.718,105.382,250.4,105.36z"/>
	</g>
	<path style="fill:#350900;" d="M659.503,101.872l-0.001-0.003c-0.034-0.097-0.06-0.166-0.084-0.231
		c-0.093-0.257-0.12-0.3-0.125-0.276c-0.004,0.007-0.003,0.025-0.002,0.047l-0.016,0.006c-0.001-0.003-0.001-0.002-0.003-0.006
		l-0.054,0.014l-0.102,0.029l-0.201,0.059l-0.398,0.12l-0.79,0.254l-1.574,0.512l-3.137,1.047l-6.263,2.127l-12.523,4.264
		l-6.261,2.132l-3.131,1.066l-3.094,1.17l-11.065,4.13c-0.447,0.163-0.894,0.326-1.341,0.488c-2.115,0.758-4.215,1.555-6.312,2.36
		l-6.076,2.259l-6.201,2.306c-2.064,0.775-4.103,1.618-6.155,2.424c-8.203,3.247-16.365,6.575-24.484,10.027
		c-1.466,0.622-2.935,1.239-4.403,1.857c-3.858,1.624-7.717,3.243-11.572,4.873c-2.802,1.185-5.602,2.374-8.393,3.584l-12.085,5.384
		c-4.031,1.789-8.058,3.582-12.059,5.441c-8.01,3.694-15.967,7.504-23.862,11.437c-3.958,1.948-7.858,4.007-11.795,5.989
		l-4.232,2.157c0.001-0.052,0.004-0.104-0.001-0.156c-0.03-0.319-0.171-0.614-0.35-0.847c-0.34-0.464-0.879-0.822-1.458-0.909
		c-0.974-0.112-1.824,0.279-2.617,0.65c0.004-0.043,0.016-0.083,0.018-0.127c0.01-0.509-0.116-1.013-0.484-1.449
		c-0.188-0.205-0.432-0.365-0.719-0.447c-0.297-0.085-0.615-0.059-0.885,0.025c-0.564,0.188-0.93,0.58-1.252,0.853
		c-0.293,0.271-0.68,0.447-1.1,0.676c-0.41,0.219-0.817,0.445-1.217,0.688c-0.2,0.106-0.408,0.273-0.57,0.339
		c-0.1,0.038-0.191,0.056-0.33,0.081c-0.076,0.018-0.13,0.058-0.178,0.095c-2.057-0.451-3.98-1.411-5.689-2.62
		c-1.717-1.226-3.219-2.722-4.668-4.272c-1.473-1.53-2.873-3.15-4.439-4.63c-1.556-1.478-3.216-2.881-5.038-4.044
		c-1.811-1.176-3.754-2.118-5.723-2.96c-0.378-0.167-0.764-0.315-1.15-0.464l-0.7-0.676c-0.447-0.479-1.099-0.888-1.342-1.401
		c-0.158-0.56,0.031-1.284,0.067-1.937c0.066-0.668,0.145-1.334,0.241-1.998l0.628-3.983c0.214-1.334,0.383-2.675,0.576-4.013
		c0.133-1.145,0.169-2.306,0.22-3.464l0.379-1.356c0.161-0.52,0.254-1.118,0.301-1.674l0.011-0.212l0.004-0.106
		c0-0.016,0.001-0.026,0.001-0.036c0.01-0.024,0.032-0.077,0.06-0.204c0.016-0.161,0.004-0.165,0.007-0.255l-0.006-0.725
		c0.952-0.977,1.806-1.932,3.111-1.896c1.644-0.05,3.336,0.663,5.05,1.064c0.433,0.112,0.891,0.227,1.305,0.311
		c0.221,0.048,0.464,0.098,0.726,0.117c0.131,0.01,0.265,0.01,0.403-0.003c0.085-0.011,0.201-0.006,0.381-0.038
		c0.74-0.213,1.026-0.73,1.236-1.217c0.192-0.475,0.228-0.992,0.293-1.403c0.073-0.418,0.114-0.889,0.244-1.153
		c0.079-0.153,0.117-0.195,0.257-0.262c0.073-0.03,0.121-0.044,0.245-0.064c0.139-0.026,0.275-0.066,0.413-0.133
		c0.624-0.326,0.766-0.977,0.67-1.51c-0.044-0.23-0.14-0.431-0.25-0.613c0.244-0.118,0.488-0.24,0.735-0.358
		c0.275-0.163,0.592-0.411,0.714-0.81c0.081-0.186,0.032-0.495-0.039-0.642c-0.009-0.022-0.014-0.036-0.021-0.054
		c0.166-0.101,0.449-0.212,0.713-0.36l0.796-0.429l0.797-0.43c0.102-0.048,0.336-0.178,0.479-0.368
		c0.146-0.179,0.239-0.395,0.272-0.635c0.05-1.033-0.79-1.536-1.245-1.821c-0.258-0.159-0.399-0.27-0.502-0.435
		c-0.098-0.139-0.143-0.407-0.148-0.552c0.12-0.556,0.192-1.081,0.386-1.655c0.085-0.315,0.158-0.479,0.294-0.833
		c0.103-0.354,0.118-0.624,0.173-0.941c0.092-0.607,0.194-1.227,0.159-1.867c-0.007-0.125-0.039-0.248-0.055-0.373
		c0.184-0.029,0.368-0.059,0.553-0.087c1.52-0.201,3.012-0.533,4.495-0.95c0.735-0.235,1.465-0.567,2.064-1.087
		c0.597-0.516,1.052-1.174,1.378-1.88c0.656-1.42,0.847-2.981,1.024-4.485l-0.002-0.053c0.004,0.082-0.001,0.039,0.009,0.008
		c0.001-0.011,0.004-0.028,0-0.062c0.005-0.028-0.054-0.13-0.124-0.143c-0.124-0.016-0.066-0.002-0.092-0.006l-0.091,0.007
		l-0.19,0.015l-0.38,0.031l-0.759,0.066l-1.517,0.132l-3.034,0.249l-3.021,0.24c-0.919,0.036-1.793-0.476-2.403-1.183
		c-1.235-1.49-1.876-3.471-3.099-5.193c-0.607-0.859-1.4-1.658-2.408-2.133c-1.001-0.482-2.111-0.586-3.155-0.557
		c-1.054,0.043-2.072,0.182-3.074,0.392c-1.004,0.208-2.016,0.366-3.012,0.617c-1.987,0.513-3.945,1.259-5.687,2.382
		c-1.754,1.1-3.27,2.598-4.322,4.376c-0.525,0.893-0.932,1.837-1.242,2.816c-0.127,0.427-0.241,0.866-0.294,1.317
		c-0.012-0.005-0.023-0.012-0.035-0.016c-0.406-0.166-0.826-0.285-1.255-0.375c-0.86-0.175-1.749-0.201-2.626-0.087
		c-1.736,0.295-3.413,0.863-4.927,1.786c-1.512,0.912-2.823,2.083-4.095,3.237l-3.827,3.402c-1.308,1.072-2.711,2.071-4.154,2.797
		c-0.154,0.07-0.367,0.13-0.611,0.245c-0.221,0.112-0.396,0.208-0.596,0.321c-0.388,0.221-0.776,0.472-1.133,0.777
		c-0.347,0.288-0.711,0.687-0.917,1.151c-0.222,0.451-0.293,1.048-0.16,1.54c0.243,1.013,0.96,1.715,1.638,2.273
		c0.261,0.21,0.541,0.387,0.82,0.565c-0.173,0.123-0.34,0.244-0.531,0.368c-0.314,0.216-0.629,0.43-0.936,0.657
		c-0.626,0.442-1.179,0.943-1.788,1.268c-0.605,0.331-1.228,0.512-1.955,0.542l-2.154,0.202l-0.157-0.011
		c-0.063-0.007-0.215,0.01-0.239,0.018l-0.298,0.061c-0.198,0.044-0.393,0.1-0.586,0.164c-0.374,0.119-0.787,0.319-1.087,0.488
		c-0.816,0.322-1.384,1.176-1.53,1.993c-0.062,0.289-0.067,0.603-0.017,0.909c-0.19,0.069-0.376,0.145-0.548,0.237
		c-0.613,0.299-1.284,0.504-1.92,0.799c-0.349,0.167-0.672,0.403-0.943,0.691c-0.277,0.273-0.49,0.68-0.627,0.963
		c-0.29,0.631-0.632,1.21-0.882,1.912c-0.121,0.342-0.222,0.689-0.305,1.04l-0.055,0.264c-0.012,0.064-0.028,0.147-0.029,0.163
		c-0.01,0.027-0.098,0.17-0.12,0.333l-0.025,0.267l-0.196,2.115c0.032,0.307,0.056,0.614,0.084,0.921
		c-0.035-0.01-0.07-0.022-0.105-0.031l-0.948-0.357c-0.637-0.221-1.257-0.484-1.832-0.833c-0.578-0.339-1.139-0.713-1.647-1.142
		c-0.525-0.426-0.985-0.909-1.619-1.292c-0.621-0.379-1.414-0.509-2.129-0.377c-0.719,0.122-1.396,0.433-1.968,0.878
		c-0.573,0.441-1.037,0.991-1.436,1.57c-0.37,0.587-0.686,1.186-1.031,1.779c-1.361,2.378-2.568,4.793-3.86,7.188
		c-1.277,2.397-2.542,4.795-3.788,7.21l-3.621,7.316c-0.661,1.183-1.149,2.463-1.73,3.691l-1.674,3.703
		c-0.149,0.323-0.314,0.686-0.323,1.156c0.003,0.473,0.207,0.878,0.446,1.191c0.514,0.6,1.019,1.004,1.582,1.445
		c1.115,0.843,2.345,1.522,3.632,2.033c0.316,0.128,0.644,0.259,0.991,0.36c0.174,0.051,0.352,0.094,0.534,0.125
		c0.089,0.014,0.199,0.038,0.341,0.025c0.124-0.009,0.245-0.041,0.353-0.086c0.091-0.038,0.168-0.088,0.243-0.139
		c0.026,0.107,0.068,0.212,0.132,0.287c0.12,0.147,0.226,0.183,0.311,0.247l0.28,0.184c0.372,0.253,0.731,0.506,1.125,0.736
		c0.786,0.459,1.668,0.804,2.598,0.947c0.93,0.155,1.931,0.052,2.821-0.307c0.195-0.076,0.379-0.167,0.561-0.263
		c-0.054,0.738-0.043,1.486-0.035,2.23c0.037,0.487,0.124,0.915,0.187,1.363c0.099,0.467,0.047,0.772-0.073,1.179
		c-0.228,0.765-0.83,1.643-0.734,2.805c0.131,1.134,0.924,2.019,1.825,2.488c0.023,0.006,0.109,0.083,0.262,0.179
		c0.209,0.115,0.27,0.118,0.406,0.172c0.239,0.083,0.482,0.143,0.723,0.191c0.445,0.088,0.887,0.12,1.315,0.146
		c0.967,2.604,2.697,4.842,4.603,6.859c2.572,2.455,5.695,4.299,9.1,5.367c1.712,0.527,3.514,0.773,5.285,0.787
		c0.767,0.049,1.535,0.005,2.298-0.08c-0.326,0.692-0.628,1.402-1.067,2.01c-1.008,1.383-2.566,2.336-3.913,3.539
		c-0.686,0.592-1.357,1.232-1.928,1.98c-0.578,0.724-1.045,1.638-1.224,2.549l-0.5,2.65c-0.092,0.405-0.229,0.804-0.404,1.122
		c-0.124,0.205-0.209,0.322-0.369,0.604c-0.153,0.328-0.194,0.728,0.035,1.116l0.002,0.003l0.018,0.026
		c0.152,0.22,0.388,0.389,0.629,0.496c-0.171,0.172-0.335,0.35-0.488,0.539c-0.679,0.834-1.18,1.817-1.466,2.864
		c-0.139,0.524-0.227,1.066-0.244,1.611c-0.01,0.275-0.001,0.542,0.02,0.821c0.031,0.3,0.129,0.615,0.385,0.859
		c0.278,0.243,0.591,0.295,0.882,0.32l0.797,0.036l1.587,0.078l6.342,0.402c2.115,0.125,4.233,0.201,6.349,0.305
		c2.116,0.112,4.237,0.173,6.358,0.216c2.12,0.054,4.24,0.122,6.371,0.052c2.135-0.014,4.24-0.12,6.352-0.225
		c2.103-0.007,4.188-0.004,6.249,0.352l0.35,0.061l0.146-0.354c0.166-0.401,0.312-0.983,0.301-1.472
		c0.002-0.508-0.084-1.008-0.245-1.482c-0.334-0.929-0.853-1.762-1.563-2.447c-1.47-1.349-3.342-1.845-5.066-2.351
		c-0.435-0.128-0.867-0.248-1.291-0.394l-1.263-0.477l-2.528-0.953c-0.837-0.327-1.628-0.748-2.434-1.123
		c-0.226-0.143-0.438-0.312-0.635-0.492c0.317-0.256,0.72-0.438,1.097-0.488c0.591-0.082,1.224,0.002,1.899-0.02
		c0.334-0.02,0.682-0.026,1.076-0.185c0.1-0.043,0.183-0.088,0.278-0.151c0.107-0.072,0.196-0.166,0.265-0.261
		c0.139-0.193,0.213-0.393,0.254-0.607l-0.007,0.033c0.404-1.611,1.367-2.923,2.563-4.115c0.29-0.3,0.591-0.591,0.901-0.871
		l0.474-0.416c0.009-0.014,0.065-0.045,0.187-0.11c0.055-0.029,0.142-0.084,0.202-0.133l0.129-0.089
		c0.353-0.232,0.695-0.485,1.042-0.73c0.272,0.047,0.543,0.101,0.819,0.127c0.893,0.092,1.804,0.11,2.713-0.059
		c0.914-0.184,1.757-0.525,2.557-1.035c0.781-0.527,1.407-1.223,1.969-1.918c0.565-0.709,1.092-1.358,1.752-1.911
		c0.649-0.556,1.367-1.031,2.129-1.421c1.537-0.803,3.207-1.323,4.885-1.988c0.831-0.359,1.677-0.674,2.495-1.073
		c0.411-0.213,0.835-0.459,1.215-0.811c0.38-0.323,0.694-0.882,0.816-1.31c0.077-0.219,0.163-0.472,0.186-0.77
		c0.017-0.247,0.016-0.486,0.006-0.721c-0.02-0.47-0.078-0.915-0.106-1.339c-0.065-0.826,0.06-1.659,0.349-2.427
		c0.307-0.76,0.768-1.576,1.158-2.358c0.398-0.801,0.819-1.56,1.199-2.395c0.367-0.838,0.648-1.729,0.729-2.664
		c0.018-0.223,0.023-0.446,0.017-0.669c0.966,0.011,1.934,0.063,2.873,0.259c0.539,0.113,1.066,0.273,1.568,0.485
		c0.501,0.216,0.959,0.505,1.467,0.777c0.504,0.265,1.082,0.507,1.728,0.505c0.64-0.01,1.215-0.223,1.73-0.397
		c0.26-0.091,0.502-0.165,0.751-0.212c0.224-0.044,0.449-0.044,0.685-0.008c0.479,0.072,0.932,0.295,1.451,0.533
		c0.255,0.116,0.523,0.237,0.807,0.337l0.163,0.507l0.132,0.399c0.04,0.123,0.104,0.298,0.088,0.324
		c0.039-0.029-0.114,0.056-0.241,0.086c-0.141,0.043-0.282,0.101-0.415,0.169c-0.267,0.137-0.512,0.315-0.724,0.527
		c-0.427,0.426-0.709,0.981-0.861,1.553c-0.311,1.16-0.096,2.386,0.328,3.458c0.205,0.545,0.489,1.04,0.757,1.546
		c0.141,0.254,0.245,0.482,0.475,0.769c0.233,0.297,0.647,0.498,1.078,0.438l0.023-0.003l0.012-0.004l9.257-3.114
		c1.544-0.526,3.063-1.007,4.645-1.587c0.17-0.048,0.495-0.213,0.682-0.434c0.104-0.113,0.196-0.254,0.257-0.419
		c0.065-0.163,0.075-0.37,0.069-0.484c-0.053-0.575-0.173-0.841-0.253-1.277c-0.103-0.4-0.145-0.804-0.22-1.206
		c-0.089-0.408-0.217-0.832-0.396-1.239c-0.341-0.833-1.038-1.567-1.845-1.958c-0.818-0.419-1.697-0.535-2.546-0.57
		c-1.803-0.08-3.363,0.813-4.768,1.556c-0.717,0.378-1.43,0.766-2.148,1.096c-0.18,0.082-0.361,0.16-0.544,0.232
		c-0.178,0.069-0.415,0.153-0.37,0.132c-0.05,0.039-0.15-0.26-0.247-0.551c0.111-0.045,0.222-0.091,0.327-0.143
		c0.544-0.269,1-0.643,1.423-1.035c0.403-0.393,0.82-0.78,1.178-1.249c0.237-0.298,0.423-0.65,0.545-1.019
		c0.25-0.055,0.492-0.137,0.706-0.279c0.569-0.355,0.988-0.826,1.443-1.31c0.211-0.245,0.392-0.566,0.501-0.855
		c0.109-0.265,0.283-0.674,0.201-1.092c-0.029-0.19-0.1-0.367-0.197-0.524c0.052-0.117,0.098-0.238,0.136-0.359
		c0.029-0.161,0.321-1.629,0.353-1.799c19.913-13.91,158.579-70.59,159.4-68.331l3.112-1.113l24.845-8.906
		c0.011,0.027,0.019,0.046,0.011,0.019c0.008,0.018,0.008,0.015-0.004-0.022l0.045-0.016l0.035-0.012l0,0L659.503,101.872z"/>
</g>
</svg>
